<svg width="1332" height="1236" viewBox="0 0 1332 1236" fill="none" xmlns="http://www.w3.org/2000/svg">
<g filter="url(#filter0_f_1635_59195)">
<path d="M871.22 430.563C807.033 369.41 777.51 259.178 689.368 250.59C599.061 241.791 538.365 333.466 468.354 391.311C468.185 391.451 468.015 391.59 467.846 391.73L688.949 612.833L871.22 430.563Z" fill="#0A7CFF"/>
<path d="M871.22 430.563L688.949 612.833H1069.58C1054.18 553.935 1003.35 521.75 951.098 488.668C923.141 470.966 894.778 453.008 871.22 430.563Z" fill="#0A7CFF"/>
<path d="M688.949 612.833L467.846 391.73C445.823 409.865 420.967 426.425 396.13 442.972C327.482 488.706 258.99 534.337 250.935 612.833H688.949Z" fill="#FF469D"/>
<path d="M250.935 612.833C239.632 722.97 332.926 814.137 417.674 885.152L688.949 612.833H250.935Z" fill="#FF7847"/>
<path d="M1000.36 924.537C1079.84 847.736 1097.56 719.875 1069.58 612.833H688.949L1000.36 924.537Z" fill="#00DFDF"/>
<path d="M688.949 612.833L417.674 885.152C505.307 958.585 592 973.407 706.54 981.408L706.572 981.41L688.949 612.833Z" fill="#7733FF"/>
<path d="M1000.36 924.537L688.949 612.833L706.572 981.41C811.303 988.727 925.658 996.715 1000.36 924.537Z" fill="#00DFDF"/>
</g>
<defs>
<filter id="filter0_f_1635_59195" x="0" y="0" width="1332" height="1236" filterUnits="userSpaceOnUse" color-interpolation-filters="sRGB">
<feFlood flood-opacity="0" result="BackgroundImageFix"/>
<feBlend mode="normal" in="SourceGraphic" in2="BackgroundImageFix" result="shape"/>
<feGaussianBlur stdDeviation="125" result="effect1_foregroundBlur_1635_59195"/>
</filter>
</defs>
</svg>
